HIERARCHY
ROOT Hips
{
	OFFSET 0.000000 0.000000 0.000000
	CHANNELS 6 Xposition Yposition Zposition Xrotation Yrotation Zrotation
	JOINT LeftUpLeg_virtual
	{
		OFFSET 0.000000 0.000000 0.000000
		CHANNELS 3 Xrotation Yrotation Zrotation
		JOINT LeftUpLeg
		{
			OFFSET 10.205400 -3.823500 0.155100
			CHANNELS 3 Xrotation Yrotation Zrotation
			JOINT LeftLeg
			{
				OFFSET 0.708757 -12.982077 0.567790
				CHANNELS 3 Xrotation Yrotation Zrotation
				JOINT LeftFoot
				{
					OFFSET -0.708756 -10.717838 -2.184338
					CHANNELS 3 Xrotation Yrotation Zrotation
					JOINT LeftToeBase
					{
						OFFSET 0.108149 -7.191104 7.560241
						CHANNELS 3 Xrotation Yrotation Zrotation
						JOINT LeftToe_End
						{
							OFFSET 0.070230 0.081724 4.490308
							CHANNELS 3 Xrotation Yrotation Zrotation
							End Site
							{
								OFFSET 0 0 0
							}
						}
					}
				}
			}
		}
	}
	JOINT RightUpLeg_virtual
	{
		OFFSET 0.000000 0.000000 0.000000
		CHANNELS 3 Xrotation Yrotation Zrotation
		JOINT RightUpLeg
		{
			OFFSET -10.205400 -3.823500 0.005500
			CHANNELS 3 Xrotation Yrotation Zrotation
			JOINT RightLeg
			{
				OFFSET -0.708756 -12.982134 0.610632
				CHANNELS 3 Xrotation Yrotation Zrotation
				JOINT RightFoot
				{
					OFFSET 0.708754 -10.717769 -1.945823
					CHANNELS 3 Xrotation Yrotation Zrotation
					JOINT RightToeBase
					{
						OFFSET -0.108140 -7.191069 7.372968
						CHANNELS 3 Xrotation Yrotation Zrotation
						JOINT RightToe_End
						{
							OFFSET -0.070227 0.081735 4.479403
							CHANNELS 3 Xrotation Yrotation Zrotation
							End Site
							{
								OFFSET 0 0 0
							}
						}
					}
				}
			}
		}
	}
	JOINT Spine_virtual
	{
		OFFSET 0.000000 0.000000 0.000000
		CHANNELS 3 Xrotation Yrotation Zrotation
		JOINT Spine
		{
			OFFSET 0.000000 6.876099 0.125700
			CHANNELS 3 Xrotation Yrotation Zrotation
			JOINT Spine1
			{
				OFFSET 0.000000 5.730043 0.104720
				CHANNELS 3 Xrotation Yrotation Zrotation
				JOINT Spine1_split
				{
					OFFSET 0.000000 5.730043 0.104720
					CHANNELS 3 Xrotation Yrotation Zrotation
					JOINT Spine2
					{
						OFFSET 0.000000 5.730043 0.104720
						CHANNELS 3 Xrotation Yrotation Zrotation
						JOINT Neck_virtual
						{
							OFFSET 0.000000 0.000000 0.000000
							CHANNELS 3 Xrotation Yrotation Zrotation
							JOINT Neck
							{
								OFFSET 0.000000 10.314075 0.188496
								CHANNELS 3 Xrotation Yrotation Zrotation
								JOINT Head
								{
									OFFSET 0.000000 7.643700 -2.377400
									CHANNELS 3 Xrotation Yrotation Zrotation
									JOINT HeadTop_End
									{
										OFFSET 0.000000 43.788605 -13.619600
										CHANNELS 3 Xrotation Yrotation Zrotation
										End Site
										{
											OFFSET 0 0 0
										}
									}
								}
							}
						}
						JOINT LeftShoulder_virtual
						{
							OFFSET 0.000000 0.000000 0.000000
							CHANNELS 3 Xrotation Yrotation Zrotation
							JOINT LeftShoulder
							{
								OFFSET 2.196100 4.412489 0.087492
								CHANNELS 3 Xrotation Yrotation Zrotation
								JOINT LeftShoulder_split
								{
									OFFSET 2.196100 4.412489 0.087492
									CHANNELS 3 Xrotation Yrotation Zrotation
									JOINT LeftArm
									{
										OFFSET 8.771219 -2.981674 -0.026999
										CHANNELS 3 Xrotation Yrotation Zrotation
										JOINT LeftForeArm
										{
											OFFSET 8.512804 0.000000 -0.000000
											CHANNELS 3 Xrotation Yrotation Zrotation
											JOINT LeftHand
											{
												OFFSET 18.484802 0.000000 -0.000000
												CHANNELS 3 Xrotation Yrotation Zrotation
												End Site
												{
													OFFSET 0 0 0
												}
											}
										}
									}
								}
							}
						}
						JOINT RightShoulder_virtual
						{
							OFFSET 0.000000 0.000000 0.000000
							CHANNELS 3 Xrotation Yrotation Zrotation
							JOINT RightShoulder
							{
								OFFSET -2.196100 4.412496 0.070690
								CHANNELS 3 Xrotation Yrotation Zrotation
								JOINT RightShoulder_split
								{
									OFFSET -2.196100 4.412496 0.070690
									CHANNELS 3 Xrotation Yrotation Zrotation
									JOINT RightArm
									{
										OFFSET -8.771282 -2.981682 -0.094208
										CHANNELS 3 Xrotation Yrotation Zrotation
										JOINT RightForeArm
										{
											OFFSET -8.494598 0.000000 0.000000
											CHANNELS 3 Xrotation Yrotation Zrotation
											JOINT RightHand
											{
												OFFSET -18.483803 0.000000 0.000001
												CHANNELS 3 Xrotation Yrotation Zrotation
												End Site
												{
													OFFSET 0 0 0
												}
											}
										}
									}
								}
							}
						}
					}
				}
			}
		}
	}
}
MOTION
Frames: 11
Frame Time: 0.03333333
-3.393734 52.787079 -0.987530 0.000000 0.000000 0.000000 9.310268 -26.754158 3.139416 -136.939815 -37.068284 28.525228 121.516701 -25.583404 -3.920800 40.969865 -22.786054 -6.078762 -3.800788 0.076451 4.485562 0.000000 0.000000 0.000000 10.383321 -27.501504 1.607000 -61.084902 35.560734 -82.752318 104.043322 42.158185 29.108350 -5.077152 24.121904 21.695351 2.899279 0.964535 4.426555 0.000000 0.000000 0.000000 9.906400 -23.951853 1.765123 30.020584 7.276628 2.922438 5.598832 1.323331 0.625431 -1.581590 1.638091 0.148400 0.000000 0.000000 0.000000 8.032041 1.199751 1.665047 7.075314 1.854588 2.073541 -2.733056 37.063858 -24.851833 0.000000 0.000000 0.000000 6.876449 1.763490 0.369749 0.729175 -4.143683 9.535584 2.401745 -0.618251 2.243785 -36.146461 19.307978 16.008686 -2.783049 -8.306950 -1.636817 0.000000 0.000000 0.000000 8.167815 1.750305 0.916779 -2.705938 -4.889950 -29.061065 4.366623 0.064227 -1.663336 -49.704352 10.538376 -10.092831 1.266432 22.296529 -1.583878 0.000000 0.000000 0.000000 
-3.588861 51.730209 -0.592693 0.000000 0.000000 0.000000 8.434104 -29.552149 2.319297 -141.592799 -34.257261 28.465011 127.500548 -22.728817 -2.151498 48.475167 -23.696827 2.370331 -2.382922 -0.177973 4.219732 0.000000 0.000000 0.000000 10.806382 -28.031260 0.840642 -58.269983 27.808924 -81.798024 100.767584 40.820940 30.495272 -8.145024 23.197230 20.321222 -0.435087 1.069496 3.782803 0.000000 0.000000 0.000000 10.247959 -22.650856 0.365880 29.090797 8.347855 3.470432 5.574525 1.681401 0.483170 -0.703128 1.641719 0.774185 0.000000 0.000000 0.000000 8.493849 1.093757 1.456549 7.982436 1.434029 2.076047 -2.599458 36.364101 -25.005259 0.000000 0.000000 0.000000 6.734726 1.844161 0.036737 0.732501 -4.130772 8.377966 1.653889 -1.139242 0.507541 -35.324045 16.670974 22.295334 -2.602721 -7.206326 -1.124064 0.000000 0.000000 0.000000 8.620492 1.766240 0.710585 -2.545829 -3.642900 -30.170267 3.196732 1.005760 -2.092349 -41.968251 6.074722 -18.546836 1.736137 22.845164 -1.905073 0.000000 0.000000 0.000000 
-3.783405 50.032509 -0.711279 0.000000 0.000000 0.000000 6.831375 -29.854566 0.547774 -140.948453 -31.162461 28.991243 130.484357 -19.425343 -0.327457 50.562432 -24.007148 8.207680 -3.790083 -0.545904 4.412497 0.000000 0.000000 0.000000 9.671229 -27.066168 -0.876406 -56.852060 18.885266 -74.356848 101.242562 38.038082 28.116026 -12.754575 19.196667 18.524998 -2.283925 1.218202 2.735124 0.000000 0.000000 0.000000 9.860777 -19.955412 -1.563542 27.606511 8.898101 4.089594 5.416965 1.925480 0.311739 0.565968 1.793680 1.016538 0.000000 0.000000 0.000000 8.672191 0.931430 1.125387 8.306662 1.139796 2.468001 -2.402398 35.374021 -24.546042 0.000000 0.000000 0.000000 6.512456 1.797459 -0.195240 0.642167 -3.905941 7.515417 0.967887 -2.073463 -1.329679 -34.018252 13.328799 26.568218 -2.219167 -5.778569 -0.509132 0.000000 0.000000 0.000000 8.761441 1.579351 0.408365 -1.815776 -1.497841 -29.438184 2.185106 2.390321 -2.318065 -35.242137 1.666289 -23.730169 1.522575 25.637755 -1.935545 0.000000 0.000000 0.000000 
-3.918052 47.941685 -0.980337 0.000000 0.000000 0.000000 4.584932 -27.147196 -2.006698 -135.772823 -28.433389 29.224812 129.696154 -16.099509 1.019810 50.546043 -23.716295 10.877012 -7.826513 -0.894832 4.749092 0.000000 0.000000 0.000000 7.321016 -24.659411 -3.173707 -55.268463 9.791805 -61.679450 103.508997 33.811998 23.134899 -17.974843 13.511180 16.295798 -3.501557 1.312105 1.579223 0.000000 0.000000 0.000000 8.835251 -16.233305 -3.455715 25.566790 8.757248 4.712802 5.012344 2.041042 0.184564 1.034969 2.233875 0.696690 0.000000 0.000000 0.000000 8.460420 0.811098 0.799061 8.285846 0.989301 3.123028 -2.157998 34.312753 -23.640067 0.000000 0.000000 0.000000 5.994519 1.728074 -0.269308 0.426537 -3.548837 6.976225 0.415561 -2.973040 -2.424594 -32.891128 11.544097 28.406147 -1.693904 -3.533384 0.008045 0.000000 0.000000 0.000000 8.352995 1.295385 0.170365 -0.786967 0.836877 -27.171850 2.005499 3.335436 -2.197913 -31.741696 -2.604870 -24.500806 0.762167 29.198089 -1.821498 0.000000 0.000000 0.000000 
-3.875045 45.582184 -1.507345 0.000000 0.000000 0.000000 2.204394 -22.854605 -4.555082 -126.326630 -26.435299 28.612603 125.252282 -12.493612 1.486659 49.982600 -21.061056 11.136585 -10.817241 -0.970181 3.777495 0.000000 0.000000 0.000000 4.678568 -20.797907 -5.378748 -51.458932 1.719482 -46.401573 103.944571 28.708501 17.567033 -23.164670 7.783573 13.624926 -4.391767 1.184361 0.760233 0.000000 0.000000 0.000000 6.823893 -12.891676 -4.962297 23.169320 7.978991 5.104072 4.353579 2.061396 0.141910 1.549169 2.353786 0.349065 0.000000 0.000000 0.000000 7.742133 0.802566 0.555336 8.185069 0.826383 3.682046 -1.913386 33.142147 -22.367210 0.000000 0.000000 0.000000 5.370474 1.677769 -0.135029 0.256086 -2.829592 6.599887 0.063590 -3.161393 -2.692906 -31.834979 12.696675 27.129684 -1.256389 -0.890538 0.222700 0.000000 0.000000 0.000000 7.427135 1.084272 0.037743 0.191340 2.694381 -23.966085 1.954312 3.935911 -1.761774 -31.326038 -7.761369 -21.337183 -0.349512 31.554460 -1.713893 0.000000 0.000000 0.000000 
-3.731890 43.007736 -1.887978 0.000000 0.000000 0.000000 0.310819 -17.596487 -6.352295 -112.358757 -24.370004 27.242887 117.002165 -7.826119 0.371072 46.222219 -15.042056 10.816528 -9.242067 -0.546157 1.088515 0.000000 0.000000 0.000000 2.055876 -16.567351 -6.907347 -44.656487 -3.861556 -31.484734 100.388440 23.873019 12.079374 -27.182918 3.287795 11.471076 -5.521195 0.783876 0.431132 0.000000 0.000000 0.000000 4.304706 -10.339561 -5.784733 20.624275 6.770913 5.151782 3.642598 2.086045 0.164676 1.973159 2.397345 0.145449 0.000000 0.000000 0.000000 6.619718 0.904456 0.411514 7.993059 0.703263 3.955989 -1.369659 32.066294 -21.069122 0.000000 0.000000 0.000000 4.699814 1.649721 0.106329 0.108749 -1.597418 6.181270 -0.265911 -3.103642 -1.930735 -29.871948 17.639913 21.579841 -1.032715 1.325262 0.123746 0.000000 0.000000 0.000000 6.237186 0.995371 -0.045824 1.000707 3.684672 -20.266541 2.104756 3.494888 -1.756723 -31.970691 -14.445480 -14.456445 -1.469122 31.471681 -1.754393 0.000000 0.000000 0.000000 
-3.565783 40.315811 -2.377913 0.000000 0.000000 0.000000 -1.634818 -12.166759 -7.104550 -93.979947 -21.640823 25.607443 105.108442 -1.895995 -1.397334 36.489302 -7.496146 10.711739 -4.721663 -0.148562 -2.135345 0.000000 0.000000 0.000000 -0.726551 -12.081263 -7.380205 -36.541929 -5.920600 -20.374620 92.571097 20.737224 6.264160 -29.485189 0.567292 11.937085 -8.588597 0.121695 0.393938 0.000000 0.000000 0.000000 1.643217 -8.800731 -5.958604 18.407297 5.336576 4.732275 3.076733 2.087319 0.173618 1.861847 2.026591 0.402327 0.000000 0.000000 0.000000 5.348007 1.039264 0.294348 7.551864 0.590901 3.779121 -0.611726 31.161369 -19.854887 0.000000 0.000000 0.000000 4.067319 1.599933 0.275222 -0.017680 0.036792 5.521530 -0.869538 -2.685868 -1.014970 -25.943143 24.690140 10.583808 -0.940624 2.654035 -0.142744 0.000000 0.000000 0.000000 5.046267 0.969706 -0.115479 1.588947 3.640379 -16.842529 2.608103 2.790875 -2.013161 -30.435917 -22.517945 -3.676755 -2.135229 29.337848 -2.095211 0.000000 0.000000 0.000000 
-3.422395 37.470100 -2.912252 0.000000 0.000000 0.000000 -3.447651 -7.117070 -6.677144 -73.592638 -18.583790 22.226178 91.559922 4.035575 -1.783791 21.108054 -1.783719 10.018705 -1.729446 -0.138863 -4.193353 0.000000 0.000000 0.000000 -3.523615 -8.026526 -6.879335 -27.965848 -5.771046 -14.242024 81.699260 20.410617 0.353465 -30.562638 -1.382665 15.401071 -13.315924 -0.904320 0.532070 0.000000 0.000000 0.000000 -0.757859 -7.995533 -5.493455 17.176637 3.906854 3.852350 2.823781 1.985213 0.093664 1.741403 1.634558 0.912601 0.000000 0.000000 0.000000 4.192039 1.100818 0.108901 6.471684 0.571550 3.258324 0.097212 30.413927 -18.778605 0.000000 0.000000 0.000000 3.712478 1.404576 0.260380 -0.075688 1.981277 4.805300 -1.441651 -2.233354 -0.506542 -19.097810 30.365908 -5.789371 -1.071803 2.252891 -0.464950 0.000000 0.000000 0.000000 4.256527 0.904034 -0.262006 2.013564 2.945441 -13.970073 2.943607 2.429795 -2.807075 -23.367278 -29.692977 11.961667 -2.238778 27.539229 -2.478737 0.000000 0.000000 0.000000 
-3.281331 34.447311 -3.511829 0.000000 0.000000 0.000000 -4.998194 -2.144182 -5.429454 -56.343866 -16.327921 17.021694 80.260221 7.369928 -0.230093 4.599875 0.153221 6.784270 -2.411134 -0.287993 -3.936002 0.000000 0.000000 0.000000 -6.521045 -4.495233 -5.769728 -19.139974 -5.501699 -12.281420 71.645105 22.588960 -4.246281 -33.933121 -3.526171 18.746400 -16.083747 -2.268506 0.937605 0.000000 0.000000 0.000000 -2.529359 -7.049975 -4.494871 17.514039 2.648611 2.577932 3.093416 1.737306 -0.134651 1.076603 0.973367 1.253532 0.000000 0.000000 0.000000 3.485669 0.966285 -0.157297 4.395027 0.636534 2.686867 0.293008 29.901301 -17.864966 0.000000 0.000000 0.000000 3.602555 1.041623 -0.037638 -0.152154 3.594709 4.316208 -2.101534 -2.071189 -0.385138 -11.894699 31.430092 -24.617359 -1.239002 0.182461 -0.689381 0.000000 0.000000 0.000000 4.051584 0.700252 -0.472181 2.297558 2.210714 -11.827179 3.482502 2.497590 -3.524456 -11.203640 -31.773804 31.792499 -1.812681 27.619822 -2.701178 0.000000 0.000000 0.000000 
-3.213713 31.222195 -4.201315 0.000000 0.000000 0.000000 -6.507092 1.759544 -3.751355 -46.660581 -15.720336 11.663324 76.786769 7.269864 1.597522 -7.538524 -0.454748 0.557950 -5.763889 -0.528256 -2.207190 0.000000 0.000000 0.000000 -9.305055 -0.684264 -4.341069 -9.524759 -6.548023 -12.979384 65.194688 24.913607 -6.349856 -45.326997 -6.448427 16.303520 -13.564162 -3.662313 1.716848 0.000000 0.000000 0.000000 -4.020946 -5.863176 -3.161449 19.699560 1.618903 0.995150 3.915379 1.289269 -0.481341 0.555688 0.241322 1.272847 0.000000 0.000000 0.000000 3.306187 0.628665 -0.495224 1.325248 0.691708 2.268763 -0.576665 29.380158 -16.976987 0.000000 0.000000 0.000000 3.876244 0.536284 -0.527544 -0.224043 4.360455 4.288802 -2.502207 -1.544236 -0.572967 -8.975959 27.570788 -40.453551 -1.424716 -3.591379 -0.809219 0.000000 0.000000 0.000000 4.493564 0.375844 -0.659004 2.471462 2.017944 -10.515161 3.646601 3.178464 -3.913934 -0.019814 -26.836411 50.300464 -1.044613 30.397036 -2.679513 0.000000 0.000000 0.000000 
-3.104747 27.683462 -4.856760 0.000000 0.000000 0.000000 -7.565866 4.151952 -2.010279 -46.572198 -15.771378 6.605286 83.978323 6.199228 2.078151 -14.378230 -1.385894 -4.460085 -7.063332 -0.702480 -1.530234 0.000000 0.000000 0.000000 -11.607804 3.157570 -2.830461 1.965849 -9.690847 -14.211215 66.221054 24.852142 -4.848309 -66.717377 -6.283920 3.197995 -5.052569 -4.625948 2.754420 0.000000 0.000000 0.000000 -5.814194 -4.999514 -1.724003 23.567342 0.829838 -0.821024 5.220212 0.789609 -0.835981 0.531031 -0.203901 0.970446 0.000000 0.000000 0.000000 3.693126 0.184206 -0.825231 -2.261296 0.700247 2.224163 -2.566363 28.705666 -16.197220 0.000000 0.000000 0.000000 4.602281 0.002844 -1.023100 -0.261617 4.040167 4.694540 -2.781135 -0.770512 -0.588749 -11.527875 20.757194 -50.808609 -1.472226 -8.881677 -0.828533 0.000000 0.000000 0.000000 5.474727 0.063349 -0.783677 2.542689 2.725443 -9.862047 3.032758 3.573933 -3.754537 4.587342 -17.822679 62.684792 -0.316297 35.497060 -2.377865 0.000000 0.000000 0.000000 
